<svg xmlns="http://www.w3.org/2000/svg" xmlns:xlink="http://www.w3.org/1999/xlink" width="500" zoomAndPan="magnify" viewBox="0 0 375 374.999991" height="500" preserveAspectRatio="xMidYMid meet" version="1.2"><defs><clipPath id="25954c9459"><path d="M 157 165 L 167.191406 165 L 167.191406 171 L 157 171 Z M 157 165 "/></clipPath><clipPath id="f9fdac62c4"><path d="M 144 146 L 167.191406 146 L 167.191406 152 L 144 152 Z M 144 146 "/></clipPath><clipPath id="6c7f73b405"><path d="M 105 156 L 167.191406 156 L 167.191406 162 L 105 162 Z M 105 156 "/></clipPath><clipPath id="22a846821e"><path d="M 45.691406 155 L 51 155 L 51 161 L 45.691406 161 Z M 45.691406 155 "/></clipPath><clipPath id="bea74ba07a"><path d="M 134 176 L 167.191406 176 L 167.191406 182 L 134 182 Z M 134 176 "/></clipPath><clipPath id="ce98bc948f"><path d="M 164 136 L 167.191406 136 L 167.191406 142 L 164 142 Z M 164 136 "/></clipPath><clipPath id="661576a7a2"><path d="M 157 116.582031 L 270.992188 116.582031 L 270.992188 221.582031 L 157 221.582031 Z M 157 116.582031 "/></clipPath><clipPath id="ca00123012"><path d="M 156.242188 175 L 158 175 L 158 182 L 156.242188 182 Z M 156.242188 175 "/></clipPath><clipPath id="e8ec097ba3"><path d="M 156.242188 153 L 158 153 L 158 160 L 156.242188 160 Z M 156.242188 153 "/></clipPath><clipPath id="0eef81d568"><path d="M 156.242188 165 L 158 165 L 158 171 L 156.242188 171 Z M 156.242188 165 "/></clipPath><clipPath id="b3e5f776ff"><path d="M 156.242188 186 L 158 186 L 158 194 L 156.242188 194 Z M 156.242188 186 "/></clipPath></defs><g id="23dcbc10bc"><rect x="0" width="375" y="0" height="374.999991" style="fill:#ffffff;fill-opacity:1;stroke:none;"/><rect x="0" width="375" y="0" height="374.999991" style="fill:#ffffff;fill-opacity:1;stroke:none;"/><g style="fill:#000000;fill-opacity:1;"><g transform="translate(89.486787, 228.768425)"><path style="stroke:none" d="M 3.75 -126.53125 L 114 -126.53125 L 114 -97.90625 L 3.75 -97.90625 Z M 38.5625 -91.34375 L 37.625 -92.28125 L 78.0625 -92.28125 L 78.0625 14.21875 L 40.25 14.21875 L 40.25 -36.6875 C 40.25 -54.15625 40.25 -67.285156 40.25 -76.078125 C 40.25 -84.878906 40.1875 -89.40625 40.0625 -89.65625 C 39.9375 -90.15625 39.4375 -90.71875 38.5625 -91.34375 Z M 38.5625 -91.34375 "/></g></g><g clip-rule="nonzero" clip-path="url(#25954c9459)"><path style=" stroke:none;fill-rule:nonzero;fill:#000000;fill-opacity:1;" d="M 157.984375 170.835938 L 186.507812 170.835938 L 186.507812 165.980469 L 157.984375 165.980469 Z M 157.984375 170.835938 "/></g><path style=" stroke:none;fill-rule:nonzero;fill:#000000;fill-opacity:1;" d="M 135.339844 141.742188 L 157.609375 141.742188 L 157.609375 136.511719 L 135.339844 136.511719 Z M 135.339844 141.742188 "/><path style=" stroke:none;fill-rule:nonzero;fill:#000000;fill-opacity:1;" d="M 115.988281 141.742188 L 131.085938 141.742188 L 131.085938 136.511719 L 115.988281 136.511719 Z M 115.988281 141.742188 "/><path style=" stroke:none;fill-rule:nonzero;fill:#000000;fill-opacity:1;" d="M 94.46875 151.710938 L 136.507812 151.710938 L 136.507812 146.480469 L 94.46875 146.480469 Z M 94.46875 151.710938 "/><path style=" stroke:none;fill-rule:nonzero;fill:#000000;fill-opacity:1;" d="M 82.375 151.710938 L 89.46875 151.710938 L 89.46875 146.480469 L 82.375 146.480469 Z M 82.375 151.710938 "/><g clip-rule="nonzero" clip-path="url(#f9fdac62c4)"><path style=" stroke:none;fill-rule:nonzero;fill:#000000;fill-opacity:1;" d="M 144.441406 151.882812 L 186.476562 151.882812 L 186.476562 146.652344 L 144.441406 146.652344 Z M 144.441406 151.882812 "/></g><g clip-rule="nonzero" clip-path="url(#6c7f73b405)"><path style=" stroke:none;fill-rule:nonzero;fill:#000000;fill-opacity:1;" d="M 105.4375 161.171875 L 186.519531 161.171875 L 186.519531 156.773438 L 105.4375 156.773438 Z M 105.4375 161.171875 "/></g><path style=" stroke:none;fill-rule:nonzero;fill:#000000;fill-opacity:1;" d="M 74.238281 161.054688 L 96.308594 161.054688 L 96.308594 155.824219 L 74.238281 155.824219 Z M 74.238281 161.054688 "/><path style=" stroke:none;fill-rule:nonzero;fill:#000000;fill-opacity:1;" d="M 55.71875 160.585938 L 66.820312 160.585938 L 66.820312 155.355469 L 55.71875 155.355469 Z M 55.71875 160.585938 "/><g clip-rule="nonzero" clip-path="url(#22a846821e)"><path style=" stroke:none;fill-rule:nonzero;fill:#000000;fill-opacity:1;" d="M 45.691406 160.9375 L 50.777344 160.9375 L 50.777344 155.707031 L 45.691406 155.707031 Z M 45.691406 160.9375 "/></g><path style=" stroke:none;fill-rule:nonzero;fill:#000000;fill-opacity:1;" d="M 115.195312 170.835938 L 151.5625 170.835938 L 151.5625 165.980469 L 115.195312 165.980469 Z M 115.195312 170.835938 "/><path style=" stroke:none;fill-rule:nonzero;fill:#000000;fill-opacity:1;" d="M 83.417969 170.835938 L 107.273438 170.835938 L 107.273438 165.980469 L 83.417969 165.980469 Z M 83.417969 170.835938 "/><path style=" stroke:none;fill-rule:nonzero;fill:#000000;fill-opacity:1;" d="M 70.824219 170.835938 L 79.25 170.835938 L 79.25 165.980469 L 70.824219 165.980469 Z M 70.824219 170.835938 "/><path style=" stroke:none;fill-rule:nonzero;fill:#000000;fill-opacity:1;" d="M 59.0625 170.835938 L 64.652344 170.835938 L 64.652344 165.980469 L 59.0625 165.980469 Z M 59.0625 170.835938 "/><path style=" stroke:none;fill-rule:nonzero;fill:#000000;fill-opacity:1;" d="M 92.007812 181.144531 L 97.597656 181.144531 L 97.597656 176.285156 L 92.007812 176.285156 Z M 92.007812 181.144531 "/><path style=" stroke:none;fill-rule:nonzero;fill:#000000;fill-opacity:1;" d="M 104.851562 181.144531 L 127.792969 181.144531 L 127.792969 176.285156 L 104.851562 176.285156 Z M 104.851562 181.144531 "/><g clip-rule="nonzero" clip-path="url(#bea74ba07a)"><path style=" stroke:none;fill-rule:nonzero;fill:#000000;fill-opacity:1;" d="M 134.628906 181.144531 L 170.746094 181.144531 L 170.746094 176.285156 L 134.628906 176.285156 Z M 134.628906 181.144531 "/></g><g clip-rule="nonzero" clip-path="url(#ce98bc948f)"><path style=" stroke:none;fill-rule:nonzero;fill:#000000;fill-opacity:1;" d="M 164.445312 141.742188 L 182.046875 141.742188 L 182.046875 136.511719 L 164.445312 136.511719 Z M 164.445312 141.742188 "/></g><g style="fill:#5e17eb;fill-opacity:1;"><g transform="translate(188.792713, 228.018425)"><path style="stroke:none" d="M 10.859375 -125.984375 C 10.609375 -126.109375 10.796875 -126.226562 11.421875 -126.34375 C 12.046875 -126.46875 13.882812 -126.53125 16.9375 -126.53125 C 20 -126.53125 24.398438 -126.53125 30.140625 -126.53125 L 50.359375 -126.53125 L 50.359375 14.21875 L 13.671875 14.21875 L 13.671875 -123.171875 L 12.734375 -124.296875 C 12.359375 -125.046875 11.734375 -125.609375 10.859375 -125.984375 Z M 55.40625 -126.53125 L 70.75 -126.53125 C 74.875 -126.53125 78.273438 -126.53125 80.953125 -126.53125 C 83.640625 -126.53125 85.671875 -126.46875 87.046875 -126.34375 C 92.660156 -125.976562 97.867188 -124.265625 102.671875 -121.203125 C 107.472656 -118.148438 111.375 -114.3125 114.375 -109.6875 C 118.863281 -102.820312 120.984375 -95.460938 120.734375 -87.609375 C 120.609375 -84.609375 120.234375 -82.046875 119.609375 -79.921875 C 118.109375 -75.429688 115.488281 -71.5 111.75 -68.125 C 108.007812 -64.757812 103.765625 -62.765625 99.015625 -62.140625 C 97.023438 -61.765625 95.96875 -61.515625 95.84375 -61.390625 C 95.84375 -61.140625 96.40625 -61.015625 97.53125 -61.015625 C 101.644531 -61.015625 105.320312 -60.265625 108.5625 -58.765625 C 111.8125 -57.273438 114.585938 -55.25 116.890625 -52.6875 C 119.203125 -50.132812 121.078125 -47.171875 122.515625 -43.796875 C 123.953125 -40.429688 124.859375 -36.8125 125.234375 -32.9375 C 125.859375 -25.332031 124.484375 -18.222656 121.109375 -11.609375 C 118.484375 -5.992188 114.832031 -1.191406 110.15625 2.796875 C 105.476562 6.796875 100.269531 9.796875 94.53125 11.796875 C 93.03125 12.421875 91.59375 12.890625 90.21875 13.203125 C 88.851562 13.515625 87.609375 13.734375 86.484375 13.859375 C 85.234375 13.972656 83.296875 14.03125 80.671875 14.03125 C 78.054688 14.03125 74.625 14.03125 70.375 14.03125 L 55.40625 14.21875 L 55.40625 -11.609375 L 64.578125 -11.609375 C 67.078125 -11.609375 69.101562 -11.640625 70.65625 -11.703125 C 72.21875 -11.765625 73.4375 -11.859375 74.3125 -11.984375 C 75.6875 -12.109375 77.3125 -12.609375 79.1875 -13.484375 C 80.300781 -14.222656 81.453125 -15.25 82.640625 -16.5625 C 83.828125 -17.875 84.671875 -19.15625 85.171875 -20.40625 C 86.421875 -23.019531 86.984375 -26.070312 86.859375 -29.5625 C 86.734375 -33.0625 86.046875 -36.0625 84.796875 -38.5625 C 84.171875 -39.6875 83.265625 -40.804688 82.078125 -41.921875 C 80.890625 -43.046875 79.800781 -43.859375 78.8125 -44.359375 C 77.0625 -45.359375 75.5 -45.921875 74.125 -46.046875 C 73.375 -46.171875 72.21875 -46.234375 70.65625 -46.234375 C 69.101562 -46.234375 67.078125 -46.234375 64.578125 -46.234375 L 55.40625 -46.234375 L 55.40625 -73.75 L 62.890625 -73.75 C 65.265625 -73.75 67.195312 -73.75 68.6875 -73.75 C 70.1875 -73.75 71.25 -73.8125 71.875 -73.9375 C 75.625 -74.8125 78.523438 -76.742188 80.578125 -79.734375 C 82.640625 -82.734375 83.359375 -86.164062 82.734375 -90.03125 C 82.109375 -92.90625 81.140625 -95.117188 79.828125 -96.671875 C 78.523438 -98.234375 77 -99.390625 75.25 -100.140625 C 73.5 -100.890625 71.5625 -101.328125 69.4375 -101.453125 C 67.320312 -101.578125 65.078125 -101.640625 62.703125 -101.640625 L 55.40625 -101.640625 Z M 55.40625 -126.53125 "/></g></g><g clip-rule="nonzero" clip-path="url(#661576a7a2)"><path style=" stroke:none;fill-rule:nonzero;fill:#ffffff;fill-opacity:1;" d="M 210.015625 116.585938 L 209.203125 141.277344 L 157.65625 141.546875 L 157.671875 147.652344 L 172.949219 147.652344 C 174.171875 147.652344 175.15625 148.636719 175.15625 149.859375 L 175.15625 151.007812 C 175.15625 152.230469 174.171875 153.214844 172.949219 153.214844 L 157.6875 153.214844 L 157.703125 159.453125 L 179.597656 159.453125 C 180.816406 159.453125 181.800781 160.4375 181.800781 161.660156 L 181.800781 162.808594 C 181.800781 164.03125 180.816406 165.015625 179.597656 165.015625 L 157.714844 165.015625 L 157.730469 170.035156 L 192.347656 170.035156 C 193.566406 170.035156 194.550781 171.015625 194.550781 172.238281 L 194.550781 173.390625 C 194.550781 174.613281 193.566406 175.597656 192.347656 175.597656 L 157.746094 175.597656 L 157.761719 181.292969 L 169.828125 181.292969 C 171.050781 181.292969 172.035156 182.277344 172.035156 183.5 L 172.035156 184.648438 C 172.035156 185.871094 171.050781 186.855469 169.828125 186.855469 L 157.773438 186.855469 L 157.792969 193.09375 L 208.933594 193.636719 L 208.660156 221.308594 L 271.058594 166.507812 Z M 210.015625 116.585938 "/></g><g clip-rule="nonzero" clip-path="url(#ca00123012)"><path style=" stroke:none;fill-rule:nonzero;fill:#ffffff;fill-opacity:1;" d="M 125.054688 181.230469 L 157.859375 181.230469 L 157.859375 175.625 L 125.054688 175.625 Z M 125.054688 181.230469 "/></g><g clip-rule="nonzero" clip-path="url(#e8ec097ba3)"><path style=" stroke:none;fill-rule:nonzero;fill:#ffffff;fill-opacity:1;" d="M 109.480469 159.355469 L 157.824219 159.355469 L 157.824219 153.316406 L 109.480469 153.316406 Z M 109.480469 159.355469 "/></g><g clip-rule="nonzero" clip-path="url(#0eef81d568)"><path style=" stroke:none;fill-rule:nonzero;fill:#ffffff;fill-opacity:1;" d="M 64.628906 170.078125 L 157.875 170.078125 L 157.875 165 L 64.628906 165 Z M 64.628906 170.078125 "/></g><g clip-rule="nonzero" clip-path="url(#b3e5f776ff)"><path style=" stroke:none;fill-rule:nonzero;fill:#ffffff;fill-opacity:1;" d="M 144.558594 193.125 L 157.84375 193.125 L 157.84375 186.898438 L 144.558594 186.898438 Z M 144.558594 193.125 "/></g><g style="fill:#000000;fill-opacity:1;"><g transform="translate(122.149117, 284.702359)"><path style="stroke:none" d="M 8.4375 0 L 8.4375 -18.4375 L 1 -18.4375 L 1 -23.421875 L 21.1875 -23.421875 L 21.1875 -18.4375 L 13.75 -18.4375 L 13.75 0 Z M 8.4375 0 "/></g></g><g style="fill:#000000;fill-opacity:1;"><g transform="translate(144.341903, 284.702359)"><path style="stroke:none" d="M 0.296875 0 L 9.609375 -23.421875 L 14.828125 -23.421875 L 24.125 0 L 18.4375 0 L 16.875 -4.046875 L 7.5625 -4.046875 L 5.984375 0 Z M 8.9375 -8.234375 L 15.53125 -8.234375 L 12.21875 -16.796875 Z M 8.9375 -8.234375 "/></g></g><g style="fill:#000000;fill-opacity:1;"><g transform="translate(168.777398, 284.702359)"><path style="stroke:none" d="M 2.8125 0 L 2.8125 -23.421875 L 12.8125 -23.421875 C 14.601562 -23.421875 16.15625 -23.097656 17.46875 -22.453125 C 18.789062 -21.804688 19.804688 -20.878906 20.515625 -19.671875 C 21.234375 -18.472656 21.59375 -17.035156 21.59375 -15.359375 C 21.59375 -13.640625 21.203125 -12.160156 20.421875 -10.921875 C 19.640625 -9.679688 18.546875 -8.753906 17.140625 -8.140625 L 21.984375 0 L 15.828125 0 L 11.640625 -7.296875 L 8.140625 -7.296875 L 8.140625 0 Z M 8.0625 -11.78125 L 12.109375 -11.78125 C 13.429688 -11.78125 14.441406 -12.085938 15.140625 -12.703125 C 15.847656 -13.316406 16.203125 -14.191406 16.203125 -15.328125 C 16.203125 -16.460938 15.847656 -17.335938 15.140625 -17.953125 C 14.441406 -18.566406 13.429688 -18.875 12.109375 -18.875 L 8.0625 -18.875 Z M 8.0625 -11.78125 "/></g></g><g style="fill:#000000;fill-opacity:1;"><g transform="translate(192.342592, 284.702359)"><path style="stroke:none" d="M 13.921875 0.46875 C 11.492188 0.46875 9.335938 -0.046875 7.453125 -1.078125 C 5.566406 -2.117188 4.09375 -3.554688 3.03125 -5.390625 C 1.96875 -7.222656 1.4375 -9.332031 1.4375 -11.71875 C 1.4375 -14.101562 1.96875 -16.207031 3.03125 -18.03125 C 4.09375 -19.863281 5.566406 -21.296875 7.453125 -22.328125 C 9.335938 -23.367188 11.492188 -23.890625 13.921875 -23.890625 C 16.378906 -23.890625 18.546875 -23.367188 20.421875 -22.328125 C 22.296875 -21.296875 23.765625 -19.863281 24.828125 -18.03125 C 25.898438 -16.207031 26.4375 -14.101562 26.4375 -11.71875 C 26.4375 -9.332031 25.898438 -7.222656 24.828125 -5.390625 C 23.765625 -3.554688 22.296875 -2.117188 20.421875 -1.078125 C 18.546875 -0.046875 16.378906 0.46875 13.921875 0.46875 Z M 6.859375 -11.71875 C 6.859375 -10.3125 7.160156 -9.070312 7.765625 -8 C 8.367188 -6.925781 9.195312 -6.085938 10.25 -5.484375 C 11.3125 -4.878906 12.535156 -4.578125 13.921875 -4.578125 C 15.328125 -4.578125 16.5625 -4.878906 17.625 -5.484375 C 18.6875 -6.085938 19.507812 -6.925781 20.09375 -8 C 20.6875 -9.070312 20.984375 -10.3125 20.984375 -11.71875 C 20.984375 -13.125 20.6875 -14.359375 20.09375 -15.421875 C 19.507812 -16.492188 18.6875 -17.332031 17.625 -17.9375 C 16.5625 -18.539062 15.328125 -18.84375 13.921875 -18.84375 C 12.535156 -18.84375 11.3125 -18.539062 10.25 -17.9375 C 9.195312 -17.332031 8.367188 -16.492188 7.765625 -15.421875 C 7.160156 -14.359375 6.859375 -13.125 6.859375 -11.71875 Z M 6.859375 -11.71875 "/></g></g><g style="fill:#5e17eb;fill-opacity:1;"><g transform="translate(220.229072, 284.702359)"><path style="stroke:none" d="M 2.8125 0 L 2.8125 -23.421875 L 13.28125 -23.421875 C 15.675781 -23.421875 17.570312 -22.851562 18.96875 -21.71875 C 20.375 -20.582031 21.078125 -19.054688 21.078125 -17.140625 C 21.078125 -16.046875 20.832031 -15.050781 20.34375 -14.15625 C 19.851562 -13.257812 19.164062 -12.554688 18.28125 -12.046875 C 19.394531 -11.554688 20.253906 -10.832031 20.859375 -9.875 C 21.472656 -8.914062 21.78125 -7.8125 21.78125 -6.5625 C 21.78125 -5.238281 21.445312 -4.085938 20.78125 -3.109375 C 20.113281 -2.128906 19.179688 -1.363281 17.984375 -0.8125 C 16.796875 -0.269531 15.410156 0 13.828125 0 Z M 8.0625 -4.21875 L 13.015625 -4.21875 C 14.066406 -4.21875 14.878906 -4.460938 15.453125 -4.953125 C 16.035156 -5.441406 16.328125 -6.132812 16.328125 -7.03125 C 16.328125 -7.914062 16.035156 -8.601562 15.453125 -9.09375 C 14.878906 -9.59375 14.066406 -9.84375 13.015625 -9.84375 L 8.0625 -9.84375 Z M 8.0625 -13.890625 L 12.484375 -13.890625 C 13.503906 -13.890625 14.285156 -14.125 14.828125 -14.59375 C 15.378906 -15.0625 15.65625 -15.71875 15.65625 -16.5625 C 15.65625 -17.414062 15.378906 -18.070312 14.828125 -18.53125 C 14.285156 -18.988281 13.503906 -19.21875 12.484375 -19.21875 L 8.0625 -19.21875 Z M 8.0625 -13.890625 "/></g></g><g style="fill:#5e17eb;fill-opacity:1;"><g transform="translate(243.292167, 284.702359)"><path style="stroke:none" d="M 2.8125 0 L 2.8125 -23.421875 L 8.140625 -23.421875 L 8.140625 0 Z M 2.8125 0 "/></g></g><g style="fill:#5e17eb;fill-opacity:1;"><g transform="translate(254.237933, 284.702359)"><path style="stroke:none" d="M 2.8125 0 L 2.8125 -23.421875 L 8.140625 -23.421875 L 8.140625 -4.984375 L 18.375 -4.984375 L 18.375 0 Z M 2.8125 0 "/></g></g><g style="fill:#5e17eb;fill-opacity:1;"><g transform="translate(273.518546, 284.702359)"><path style="stroke:none" d="M 2.8125 0 L 2.8125 -23.421875 L 8.140625 -23.421875 L 8.140625 -4.984375 L 18.375 -4.984375 L 18.375 0 Z M 2.8125 0 "/></g></g></g></svg>